<svg width="0" height="0" class="hidden">
  <symbol fill="none" xmlns="http://www.w3.org/2000/svg" viewBox="0 0 16 16" id="icon-arrow">
    <path fill-rule="evenodd" clip-rule="evenodd" d="M10.147 4.646a.499.499 0 01.708 0l3 3a.5.5 0 010 .708l-3 3a.5.5 0 01-.708-.708L12.794 8l-2.647-2.646a.5.5 0 010-.708z" fill="#000"></path>
    <path fill-rule="evenodd" clip-rule="evenodd" d="M2 8a.5.5 0 01.5-.5H13a.5.5 0 010 1H2.5A.5.5 0 012 8z" fill="#000"></path>
  </symbol>
  <symbol fill="none" xmlns="http://www.w3.org/2000/svg" viewBox="0 0 16 18" id="icon-basket">
    <path d="M14.38 6.593a.518.518 0 00-.171-.152.436.436 0 00-.21-.055h-3V4.023c0-.47-.157-.921-.439-1.254-.28-.332-.662-.519-1.06-.519h-3c-.398 0-.78.187-1.06.52-.282.332-.44.783-.44 1.253v2.363H2a.435.435 0 00-.21.052.516.516 0 00-.173.151.63.63 0 00-.103.223.695.695 0 00-.014.254l.94 7.18c.036.281.157.538.34.723a.912.912 0 00.66.28h9.13a.913.913 0 00.659-.28c.184-.185.305-.442.34-.724l.93-7.18a.695.695 0 00-.015-.251.627.627 0 00-.104-.22zM6 4.023a.65.65 0 01.146-.418.465.465 0 01.354-.173h3c.132 0 .26.062.353.173a.65.65 0 01.147.418v2.363H6V4.023zm6.57 10.045H3.43l-.845-6.5h10.83l-.845 6.5z" fill="#000"></path>
  </symbol>
  <symbol fill="none" xmlns="http://www.w3.org/2000/svg" viewBox="0 0 12 13" id="icon-cart">
    <path d="M3 5h6.969l.25-1H4V3h6.86a.5.5 0 01.485.622l-1.25 5A.5.5 0 019.61 9H2.5a.5.5 0 01-.5-.5v-6H1v-1h1.5A.5.5 0 013 2v3zm0 7a1 1 0 110-2 1 1 0 010 2zm6 0a1 1 0 110-2 1 1 0 010 2z" fill="#fff"></path>
  </symbol>
  <symbol fill="none" xmlns="http://www.w3.org/2000/svg" viewBox="0 0 14 14" id="icon-checkbox">
    <path d="M5.283 11.191l-3.9-3.877a.24.24 0 010-.342l.985-.985a.24.24 0 01.34 0l2.567 2.552a.242.242 0 00.341-.001L11.29 2.81a.242.242 0 01.342-.001l.985.985a.241.241 0 01.001.34l-6.18 6.236h.002l-.815.82a.242.242 0 01-.341 0z" fill="#585757"></path>
  </symbol>
  <symbol fill="none" xmlns="http://www.w3.org/2000/svg" viewBox="0 0 10 10" id="icon-clock">
    <path d="M5 .625a4.375 4.375 0 100 8.75 4.375 4.375 0 000-8.75zm1.724 5.72l-.28.38a.078.078 0 01-.109.017L4.72 5.564a.077.077 0 01-.032-.063V2.812c0-.042.035-.078.078-.078h.47c.042 0 .077.036.077.079v2.416l1.393 1.007a.077.077 0 01.018.109z" fill="#fff"></path>
  </symbol>
  <symbol fill="none" xmlns="http://www.w3.org/2000/svg" viewBox="0 0 24 24" id="icon-facebook">
    <path d="M12 0C5.373 0 0 5.405 0 12.072 0 18.097 4.388 23.091 10.125 24v-8.437H7.077v-3.49h3.048v-2.66c0-3.028 1.792-4.698 4.532-4.698 1.313 0 2.688.235 2.688.235v2.97h-1.517c-1.488 0-1.953.931-1.953 1.886v2.264H17.2l-.531 3.49h-2.794v8.438C19.612 23.093 24 18.098 24 12.072 24 5.405 18.627 0 12 0z" fill="#fff"></path>
  </symbol>
  <symbol fill="none" xmlns="http://www.w3.org/2000/svg" viewBox="0 0 24 24" id="icon-instagram">
    <path d="M12 24a11.75 11.75 0 01-4.664-.95c-1.484-.632-2.762-1.484-3.832-2.554-1.07-1.07-1.922-2.348-2.555-3.832A11.773 11.773 0 010 12c0-1.625.316-3.18.95-4.664.632-1.484 1.484-2.762 2.554-3.832 1.07-1.07 2.348-1.922 3.832-2.555A11.767 11.767 0 0112 0c1.625 0 3.18.316 4.664.95 1.484.632 2.762 1.484 3.832 2.554 1.07 1.07 1.922 2.348 2.555 3.832C23.684 8.82 24 10.375 24 12c0 1.625-.316 3.18-.95 4.664-.632 1.484-1.484 2.762-2.554 3.832-1.07 1.07-2.348 1.922-3.832 2.555A11.767 11.767 0 0112 24zm6-16.5a1.46 1.46 0 00-.434-1.055A1.43 1.43 0 0016.5 6h-9c-.406 0-.758.148-1.055.445A1.442 1.442 0 006 7.5V9h2.672C9.578 8 10.687 7.5 12 7.5c1.313 0 2.422.5 3.328 1.5H18V7.5zM9 12c0 .828.293 1.535.879 2.121A2.89 2.89 0 0012 15a2.89 2.89 0 002.121-.879A2.89 2.89 0 0015 12a2.89 2.89 0 00-.879-2.121A2.89 2.89 0 0012 9a2.89 2.89 0 00-2.121.879A2.89 2.89 0 009 12zm9-1.5h-1.781A4.38 4.38 0 0116.5 12c0 1.25-.438 2.313-1.313 3.188-.874.874-1.937 1.312-3.187 1.312-1.25 0-2.313-.438-3.188-1.313C7.939 14.313 7.5 13.25 7.5 12c0-.484.094-.984.281-1.5H6v6c0 .422.145.777.434 1.066.289.29.644.434 1.066.434h9a1.45 1.45 0 001.066-.434c.29-.289.434-.644.434-1.066v-6z" fill="#fff"></path>
  </symbol>
  <symbol fill="none" xmlns="http://www.w3.org/2000/svg" viewBox="0 0 40 40" id="icon-map">
    <path d="M25.875 19.352c0 4.455-6 8.273-6 8.273s-6-3.818-6-8.273c0-1.519.632-2.975 1.757-4.05a6.148 6.148 0 014.243-1.677c1.591 0 3.117.603 4.243 1.678a5.598 5.598 0 011.757 4.05z" stroke="#000" stroke-width="1.333" stroke-linecap="round" stroke-linejoin="round"></path>
    <path d="M19.875 21.262c1.105 0 2-.855 2-1.91 0-1.054-.895-1.909-2-1.909s-2 .855-2 1.91c0 1.054.895 1.909 2 1.909z" stroke="#000" stroke-width="1.333" stroke-linecap="round" stroke-linejoin="round"></path>
  </symbol>
  <symbol fill="none" xmlns="http://www.w3.org/2000/svg" viewBox="0 0 10 10" id="icon-phone">
    <path d="M8.536 7.142l-1.693-1.54a.417.417 0 00-.58.018l-.997 1.025c-.24-.046-.723-.196-1.22-.692-.496-.497-.646-.98-.69-1.219l1.024-.997a.417.417 0 00.018-.58l-1.54-1.693a.417.417 0 00-.58-.037l-.904.776a.417.417 0 00-.12.27c-.007.104-.126 2.572 1.787 4.486 1.67 1.669 3.76 1.79 4.336 1.79.084 0 .136-.002.15-.002a.413.413 0 00.27-.122l.775-.904a.415.415 0 00-.036-.58z" fill="#fff"></path>
  </symbol>
  <symbol fill="none" xmlns="http://www.w3.org/2000/svg" viewBox="0 0 40 40" id="icon-search">
    <path fill-rule="evenodd" clip-rule="evenodd" d="M23.028 22.029l3.765 3.766a.706.706 0 01-.998.998l-3.766-3.766a5.6 5.6 0 11.998-.998zm-4.428.77a4.2 4.2 0 100-8.4 4.2 4.2 0 000 8.4z" fill="#000"></path>
  </symbol>
  <symbol fill="none" xmlns="http://www.w3.org/2000/svg" viewBox="0 0 12 12" id="icon-star-empty">
    <path d="M10.393 4.148l-2.704-.39-1.208-2.431a.595.595 0 00-1.062 0L4.21 3.757l-2.704.391a.586.586 0 00-.327 1.003l1.955 1.89-.462 2.672a.59.59 0 00.858.618L5.95 9.07l2.419 1.261c.429.224.941-.136.858-.618l-.462-2.671L10.72 5.15a.586.586 0 00-.327-1.003zM7.812 6.733l.438 2.54-2.3-1.198-2.3 1.199.438-2.54-1.861-1.8 2.572-.37L5.95 2.25l1.151 2.313 2.572.371-1.861 1.8z" fill="#FFD168"></path>
  </symbol>
  <symbol fill="none" xmlns="http://www.w3.org/2000/svg" viewBox="0 0 12 12" id="icon-star">
    <path d="M10.642 4.138l-2.976-.432-1.33-2.697a.377.377 0 00-.673 0l-1.33 2.697-2.975.432a.374.374 0 00-.207.64l2.152 2.099-.508 2.964a.374.374 0 00.543.395L6 8.836l2.661 1.4a.375.375 0 00.544-.395l-.509-2.964 2.153-2.099a.375.375 0 00-.207-.64z" fill="#FFD168"></path>
  </symbol>
  <symbol fill="none" xmlns="http://www.w3.org/2000/svg" viewBox="0 0 22 22" id="icon-toggle">
    <path d="M4.583 15.667h12.833L11 5.584 4.583 15.667z" fill="#000"></path>
  </symbol>
  <symbol fill="none" xmlns="http://www.w3.org/2000/svg" viewBox="0 0 24 24" id="icon-twitter">
    <path d="M12 .48C5.639.48.48 5.638.48 12c0 6.363 5.158 11.52 11.52 11.52 6.363 0 11.52-5.157 11.52-11.52C23.52 5.639 18.363.48 12 .48zm4.686 9.437c.005.099.006.197.006.293 0 3-2.28 6.457-6.454 6.457a6.403 6.403 0 01-3.478-1.02c.176.022.358.03.541.03a4.544 4.544 0 002.818-.97 2.274 2.274 0 01-2.12-1.575c.34.065.69.051 1.024-.04a2.27 2.27 0 01-1.82-2.224v-.028c.306.17.656.273 1.028.284a2.268 2.268 0 01-.702-3.03 6.451 6.451 0 004.677 2.372 2.269 2.269 0 013.866-2.07c.508-.1.995-.287 1.44-.551a2.28 2.28 0 01-.997 1.256 4.56 4.56 0 001.303-.359 4.602 4.602 0 01-1.132 1.175z" fill="#fff"></path>
  </symbol>
</svg>